g MercSwordSwipe1Mesh
v -0.98078525 -0.19508988 -0.044234157
v -0.5755193 -0.114477575 0.018734694
v -0.542127 -0.2245549 0.018734694
v -0.92388034 -0.38268334 -0.044234157
v -0.4879006 -0.32600504 0.018734694
v -0.8314692 -0.5555689 -0.044234157
v -0.4149257 -0.41492522 0.018734694
v -0.70710707 -0.70710653 -0.044234157
v -0.32600546 -0.4879002 0.018734694
v -0.5555712 -0.8314687 -0.044234157
v -0.22455728 -0.54212654 0.018734694
v -0.38268387 -0.9238798 -0.044234157
v -0.11447799 -0.57551885 0.018734694
v -0.1950903 -0.98078483 -0.044234157
v -1.1920929E-06 -0.5867945 0.018734694
v -1.1920929E-06 -1 -0.044234157
v 0.114477575 -0.57551885 0.018734694
v 0.19508988 -0.98078483 -0.044234157
v 0.22455674 -0.54212654 0.018734694
v 0.38268334 -0.9238798 -0.044234157
v 0.32600504 -0.4879021 0.018734694
v 0.5555708 -0.83147055 -0.044234157
v 0.41492522 -0.41492522 0.018734694
v 0.70710653 -0.70710653 -0.044234157
v 0.4879021 -0.32600504 0.018734694
v 0.83147055 -0.5555708 -0.044234157
v 0.54212654 -0.22455674 0.018734694
v 0.9238798 -0.38268334 -0.044234157
v 0.57551885 -0.114477575 0.018734694
v 0.98078483 -0.19508988 -0.044234157
v -0.98078525 -0.19508988 -0.13648474
v -0.93364847 -0.22388047 0.11098707
v -0.8794768 -0.40245765 0.11098707
v -0.92388034 -0.38268334 -0.13648474
v -0.7915087 -0.56703526 0.11098707
v -0.8314692 -0.5555689 -0.13648474
v -0.6731235 -0.7112888 0.11098707
v -0.70710707 -0.70710653 -0.13648474
v -0.52886987 -0.829676 0.11098707
v -0.5555712 -0.8314687 -0.13648474
v -0.36429226 -0.91764414 0.11098707
v -0.38268387 -0.9238798 -0.13648474
v -0.18571508 -0.9718157 0.11098707
v -0.1950903 -0.98078483 -0.13648474
v -1.1920929E-06 -0.9901072 0.11098707
v -1.1920929E-06 -1 -0.13648474
v 0.1857146 -0.9718157 0.11098707
v 0.19508988 -0.98078483 -0.13648474
v 0.3642918 -0.91764414 0.11098707
v 0.38268334 -0.9238798 -0.13648474
v 0.5288694 -0.829676 0.11098707
v 0.5555708 -0.83147055 -0.13648474
v 0.673123 -0.7112907 0.11098707
v 0.70710653 -0.70710653 -0.13648474
v 0.7915082 -0.56703717 0.11098707
v 0.83147055 -0.5555708 -0.13648474
v 0.8794783 -0.40245765 0.11098707
v 0.9238798 -0.38268334 -0.13648474
v 0.933648 -0.22388047 0.11098707
v 0.98078483 -0.19508988 -0.13648474
vt 0.9999733 0.994694
vt 0.9999733 0.006480954
vt 0.92854965 0.006480954
vt 0.92854965 0.994694
vt 0.857126 0.006480954
vt 0.857126 0.994694
vt 0.78570235 0.006480954
vt 0.78570235 0.994694
vt 0.7142787 0.006480954
vt 0.7142787 0.994694
vt 0.64285505 0.006480954
vt 0.64285505 0.994694
vt 0.5714313 0.006480954
vt 0.5714313 0.994694
vt 0.5000076 0.006480954
vt 0.5000076 0.994694
vt 0.42856872 0.006480954
vt 0.42856872 0.994694
vt 0.35714507 0.006480954
vt 0.35714507 0.994694
vt 0.2857214 0.006480954
vt 0.2857214 0.994694
vt 0.21429773 0.006480954
vt 0.21429773 0.994694
vt 0.14287406 0.006480954
vt 0.14287406 0.994694
vt 0.0714504 0.006480954
vt 0.0714504 0.994694
vt 2.6732683E-05 0.006480954
vt 2.6732683E-05 0.994694
vt 0.9999733 0.994694
vt 0.9999733 0.006480954
vt 0.92854965 0.006480954
vt 0.92854965 0.994694
vt 0.857126 0.006480954
vt 0.857126 0.994694
vt 0.78570235 0.006480954
vt 0.78570235 0.994694
vt 0.7142787 0.006480954
vt 0.7142787 0.994694
vt 0.64285505 0.006480954
vt 0.64285505 0.994694
vt 0.5714313 0.006480954
vt 0.5714313 0.994694
vt 0.5000076 0.006480954
vt 0.5000076 0.994694
vt 0.42856872 0.006480954
vt 0.42856872 0.994694
vt 0.35714507 0.006480954
vt 0.35714507 0.994694
vt 0.2857214 0.006480954
vt 0.2857214 0.994694
vt 0.21429773 0.006480954
vt 0.21429773 0.994694
vt 0.14287406 0.006480954
vt 0.14287406 0.994694
vt 0.0714504 0.006480954
vt 0.0714504 0.994694
vt 2.6732683E-05 0.006480954
vt 2.6732683E-05 0.994694
vn -0.14391059 -0.044389307 0.98859465
vn -0.14391059 -0.044389307 0.98859465
vn -0.1401065 -0.057703435 0.98845357
vn -0.1401065 -0.057703435 0.98845357
vn -0.12489039 -0.08433175 0.9885801
vn -0.12489039 -0.08433175 0.9885801
vn -0.10587019 -0.10715598 0.98858947
vn -0.10587019 -0.10715598 0.98858947
vn -0.0830459 -0.12617612 0.9885257
vn -0.0830459 -0.12617612 0.9885257
vn -0.058319747 -0.1394903 0.9885045
vn -0.058319747 -0.1394903 0.9885045
vn -0.029789388 -0.14709836 0.9886732
vn -0.029789388 -0.14709836 0.9886732
vn 0.0006428957 -0.15090239 0.98854846
vn 0.0006428957 -0.15090239 0.98854846
vn 0.029173195 -0.14709836 0.98869157
vn 0.029173195 -0.14709836 0.98869157
vn 0.057703435 -0.1394903 0.9885407
vn 0.057703435 -0.1394903 0.9885407
vn 0.08433175 -0.12617612 0.9884168
vn 0.08433175 -0.12617612 0.9884168
vn 0.10715598 -0.10715598 0.9884509
vn 0.10715598 -0.10715598 0.9884509
vn 0.12617612 -0.08433175 0.9884168
vn 0.12617612 -0.08433175 0.9884168
vn 0.1394903 -0.057703435 0.9885407
vn 0.1394903 -0.057703435 0.9885407
vn 0.14519632 -0.044389307 0.9884066
vn 0.14519632 -0.044389307 0.9884066
vn -0.9465626 -0.28784776 0.14547491
vn -0.9465626 -0.28784776 0.14547491
vn -0.9123263 -0.38675278 0.13447323
vn -0.91803235 -0.3715366 0.1384816
vn -0.82293135 -0.5598365 0.09678367
vn -0.8305394 -0.5465224 0.10731987
vn -0.6993001 -0.710096 0.08211586
vn -0.70881027 -0.7005859 0.08226398
vn -0.5490406 -0.83182526 0.08137028
vn -0.5585508 -0.8261192 0.0744861
vn -0.37785894 -0.92312217 0.071190335
vn -0.385467 -0.9212201 0.052618396
vn -0.19336301 -0.9801827 0.043041516
vn -0.1971671 -0.9801827 0.019156873
vn 0.0006428957 -0.9992029 0.03991382
vn 0.0006428957 -0.9992029 0.03991382
vn 0.19274682 -0.9801827 0.045722134
vn 0.19655085 -0.9801827 0.024690814
vn 0.37914467 -0.92312217 0.06399047
vn 0.38485074 -0.9212201 0.05695074
vn 0.5503264 -0.83182526 0.07216328
vn 0.5579345 -0.8261192 0.07896958
vn 0.7005859 -0.710096 0.07030657
vn 0.710096 -0.7005859 0.07030678
vn 0.8223151 -0.5598365 0.101886965
vn 0.8299232 -0.5465224 0.11198539
vn 0.91171 -0.38675278 0.13858981
vn 0.9193181 -0.3715366 0.12967207
vn 0.9459464 -0.28784776 0.1494291
vn 0.9459464 -0.28784776 0.1494291
g MercSwordSwipe1Mesh_0
f 3/3/3 2/2/2 1/1/1
f 4/4/4 3/3/3 1/1/1
f 5/5/5 3/3/3 4/4/4
f 6/6/6 5/5/5 4/4/4
f 7/7/7 5/5/5 6/6/6
f 8/8/8 7/7/7 6/6/6
f 9/9/9 7/7/7 8/8/8
f 10/10/10 9/9/9 8/8/8
f 11/11/11 9/9/9 10/10/10
f 12/12/12 11/11/11 10/10/10
f 13/13/13 11/11/11 12/12/12
f 14/14/14 13/13/13 12/12/12
f 15/15/15 13/13/13 14/14/14
f 16/16/16 15/15/15 14/14/14
f 17/17/17 15/15/15 16/16/16
f 18/18/18 17/17/17 16/16/16
f 19/19/19 17/17/17 18/18/18
f 20/20/20 19/19/19 18/18/18
f 21/21/21 19/19/19 20/20/20
f 22/22/22 21/21/21 20/20/20
f 23/23/23 21/21/21 22/22/22
f 24/24/24 23/23/23 22/22/22
f 25/25/25 23/23/23 24/24/24
f 26/26/26 25/25/25 24/24/24
f 27/27/27 25/25/25 26/26/26
f 28/28/28 27/27/27 26/26/26
f 29/29/29 27/27/27 28/28/28
f 30/30/30 29/29/29 28/28/28
f 33/33/33 32/32/32 31/31/31
f 34/34/34 33/33/33 31/31/31
f 35/35/35 33/33/33 34/34/34
f 36/36/36 35/35/35 34/34/34
f 37/37/37 35/35/35 36/36/36
f 38/38/38 37/37/37 36/36/36
f 39/39/39 37/37/37 38/38/38
f 40/40/40 39/39/39 38/38/38
f 41/41/41 39/39/39 40/40/40
f 42/42/42 41/41/41 40/40/40
f 43/43/43 41/41/41 42/42/42
f 44/44/44 43/43/43 42/42/42
f 45/45/45 43/43/43 44/44/44
f 46/46/46 45/45/45 44/44/44
f 47/47/47 45/45/45 46/46/46
f 48/48/48 47/47/47 46/46/46
f 49/49/49 47/47/47 48/48/48
f 50/50/50 49/49/49 48/48/48
f 51/51/51 49/49/49 50/50/50
f 52/52/52 51/51/51 50/50/50
f 53/53/53 51/51/51 52/52/52
f 54/54/54 53/53/53 52/52/52
f 55/55/55 53/53/53 54/54/54
f 56/56/56 55/55/55 54/54/54
f 57/57/57 55/55/55 56/56/56
f 58/58/58 57/57/57 56/56/56
f 59/59/59 57/57/57 58/58/58
f 60/60/60 59/59/59 58/58/58
